<svg xmlns="http://www.w3.org/2000/svg" width="446.955" height="586.808" viewBox="0 0 446.955 586.808">
    <path id="prefix__motif-ppl" fill="#eed1ff" d="M603.136 802.947a49.076 49.076 0 0 1-46.541-65.05l41.44-120.191-115.473 41.582a49.047 49.047 0 0 1-62.876-62.446l40.486-114.9-114.613 41.28a49.056 49.056 0 0 1-62.905-62.393L357 248.963a49.049 49.049 0 0 1 92.564 32.481l-40.186 114.524 114.79-41.34a49.051 49.051 0 0 1 62.882 62.452l-40.492 114.9L661.17 490.7a49.051 49.051 0 0 1 62.994 62.134l-74.828 217.038a49.058 49.058 0 0 1-46.2 33.075z" transform="translate(-279.886 -216.14)"/>
</svg>
