<svg xmlns="http://www.w3.org/2000/svg" width="417.875" height="345.567" viewBox="0 0 417.875 345.567">
    <defs>
        <style>
            .prefix__cls-2{fill:#e4f2ff}.prefix__cls-3{fill:#e0effd}.prefix__cls-4{fill:#413847}.prefix__cls-5{fill:#fff}
        </style>
    </defs>
    <g id="prefix__howto-2" transform="translate(-750.755 -2977.513)">
        <g id="prefix__그룹_444" data-name="그룹 444" transform="translate(741.516 2977.513)">
            <path id="prefix__패스_271" fill="#f8f8f8" d="M172.783 0A172.783 172.783 0 1 1 0 172.783 172.783 172.783 0 0 1 172.783 0z" data-name="패스 271" transform="translate(42.242)"/>
            <g id="prefix__그룹_469" data-name="그룹 469" transform="translate(76.804 192.026)">
                <g id="prefix__그룹_442" data-name="그룹 442">
                    <g id="prefix__그룹_441" data-name="그룹 441">
                        <path id="prefix__패스_270" d="M1021.2 91.035v7.552h5.626l-5.626 7.888v23.26a3.133 3.133 0 0 1-2.847 3.356h-42.117a3.133 3.133 0 0 1-2.848-3.356v-38.7a3.133 3.133 0 0 1 2.848-3.356l41.9.889c1.575 0 3.064.613 3.064 2.467z" class="prefix__cls-2" data-name="패스 270" transform="translate(-973.389 -87.679)"/>
                    </g>
                </g>
            </g>
            <g id="prefix__그룹_466" data-name="그룹 466" transform="translate(296.47 103.529)">
                <g id="prefix__그룹_439" data-name="그룹 439">
                    <g id="prefix__그룹_438" data-name="그룹 438">
                        <path id="prefix__패스_269" d="M1512.611 474.987v15.878l-12.086-1.463 12.086 19.069v63.765c0 3.9 2.892 7.056 6.46 7.056h105.639c3.568 0 6.46-3.159 6.46-7.056v-97.249c0-3.9-2.892-7.056-6.46-7.056l-105.156 1.87c-3.568-.001-6.943 1.289-6.943 5.186z" class="prefix__cls-2" data-name="패스 269" transform="translate(-1500.526 -467.931)"/>
                    </g>
                </g>
            </g>
            <g id="prefix__그룹_467" data-name="그룹 467" transform="translate(9.239 102.185)">
                <g id="prefix__그룹_442-2" data-name="그룹 442" transform="translate(0 -31)">
                    <g id="prefix__그룹_441-2" data-name="그룹 441">
                        <path id="prefix__패스_270-2" d="M1077.175 95.182v16.884h12.213l-12.213 17.634v52c0 4.144-2.767 7.5-6.181 7.5H979.57c-3.414 0-6.181-3.36-6.181-7.5V95.182c0-4.144 2.767-7.5 6.181-7.5l90.961 1.988c3.415-.003 6.644 1.368 6.644 5.512z" class="prefix__cls-3" data-name="패스 270" transform="translate(-973.389 -87.679)"/>
                    </g>
                </g>
            </g>
            <g id="prefix__그룹_440" data-name="그룹 440" transform="translate(290.47 250.529)">
                <g id="prefix__그룹_439-2" data-name="그룹 439">
                    <g id="prefix__그룹_438-2" data-name="그룹 438">
                        <path id="prefix__패스_269-2" d="M1507.678 472.107v9.4l-7.153-.866 7.153 11.286v37.74a4.011 4.011 0 0 0 3.823 4.176h62.522a4.011 4.011 0 0 0 3.823-4.176v-57.56a4.011 4.011 0 0 0-3.823-4.176l-62.237 1.107c-2.11 0-4.108.762-4.108 3.069z" class="prefix__cls-3" data-name="패스 269" transform="translate(-1500.525 -467.931)"/>
                    </g>
                </g>
            </g>
            <g id="prefix__그룹_508" data-name="그룹 508" transform="translate(922.491 -1109.569)">
                <path id="prefix__패스_366" d="M-656.838 1402.087l-104.6-.293a8.584 8.584 0 0 1-8.57-8.653l.619-221.514a8.584 8.584 0 0 1 8.653-8.571l104.6.293a8.586 8.586 0 0 1 8.571 8.653l-.619 221.514a8.651 8.651 0 0 1-8.654 8.571z" class="prefix__cls-4" data-name="패스 366"/>
                <path id="prefix__패스_367" d="M-661.455 1396.617l-95.987-.252a7.577 7.577 0 0 1-7.515-7.617l.625-213.4a7.568 7.568 0 0 1 7.567-7.593l95.986.252a7.577 7.577 0 0 1 7.515 7.617l-.625 213.4a7.633 7.633 0 0 1-7.566 7.593z" class="prefix__cls-5" data-name="패스 367"/>
                <path id="prefix__사각형_1135" d="M0 0h58.489v8.418a6.19 6.19 0 0 1-6.19 6.19H6.19A6.19 6.19 0 0 1 0 8.418V0z" class="prefix__cls-4" data-name="사각형 1135" transform="translate(-736.261 1164.091)"/>
                <rect id="prefix__사각형_1136" width="18.062" height="1.743" fill="#fff" data-name="사각형 1136" opacity="0.39" rx=".872" transform="rotate(.063 -1064918.05 -650635.763)"/>
                <circle id="prefix__타원_90" cx="1.646" cy="1.646" r="1.646" class="prefix__cls-5" data-name="타원 90" transform="translate(-690.135 1169.801)"/>
                <path id="prefix__패스_368" d="M-739.941 1167.8l2.08.006a1.6 1.6 0 0 1 1.594 1.6v2.224l2.65-2.028-.531-3.723-4.628-1z" class="prefix__cls-4" data-name="패스 368"/>
                <path id="prefix__패스_369" d="M-674.132 1167.971l-2.08.008a1.6 1.6 0 0 0-1.591 1.6l.006 2.223-2.653-2.023.524-3.724 4.627-1.007z" class="prefix__cls-4" data-name="패스 369"/>
            </g>
        </g>
        <g id="prefix__그룹_472" data-name="그룹 472" transform="translate(762.398 2909.903)">
            <g id="prefix__그룹_470" data-name="그룹 470" transform="translate(159.429 231.663)">
                <path id="prefix__패스_299" d="M207.048 338.427a3.97 3.97 0 0 0-3.89 4.038 4.124 4.124 0 0 0 4.069 4.167 3.961 3.961 0 0 0 2.919-1.294.894.894 0 1 0-1.312-1.214 2.193 2.193 0 0 1-1.613.721 2.274 2.274 0 0 1-2.107-1.492l4.961-.017a.894.894 0 0 0 .891-.9 3.97 3.97 0 0 0-3.918-4.009zm-1.929 3.137a2.072 2.072 0 0 1 3.881-.014z" data-name="패스 299" transform="translate(-194.206 -335.002)"/>
                <path id="prefix__패스_300" d="M253.3 338.226a.894.894 0 0 0-.891.9v.122a3.868 3.868 0 1 0 .036 6.273.893.893 0 0 0 1.773-.163l-.021-6.238a.894.894 0 0 0-.897-.894zm-3.127 6.249a2.081 2.081 0 1 1 2.073-2.088 2.083 2.083 0 0 1-2.069 2.088z" data-name="패스 300" transform="translate(-228.516 -334.842)"/>
                <path id="prefix__패스_301" d="M296.824 332.011a1.168 1.168 0 0 1-.977-1.131l-.026-7.643a.894.894 0 0 0-.985-.886.92.92 0 0 0-.8.931l.027 7.922a2.593 2.593 0 0 0 2.514 2.579.926.926 0 0 0 .975-.933.9.9 0 0 0-.728-.839z" data-name="패스 301" transform="translate(-266.477 -322.212)"/>
                <path id="prefix__패스_302" d="M439.068 331.523a1.168 1.168 0 0 1-.976-1.132l-.026-7.643a.894.894 0 0 0-.985-.886.92.92 0 0 0-.8.931l.027 7.922a2.592 2.592 0 0 0 2.514 2.579.926.926 0 0 0 .975-.933.894.894 0 0 0-.729-.838z" data-name="패스 302" transform="translate(-379.601 -321.824)"/>
                <path id="prefix__패스_303" d="M411.205 336.834a3.967 3.967 0 0 0-3.9 3.976l.011 3.315a.919.919 0 0 0 .87.928.894.894 0 0 0 .918-.9l-.011-3.353a2.177 2.177 0 0 1 2.167-2.182.894.894 0 0 0 .886-.988.918.918 0 0 0-.941-.796z" data-name="패스 303" transform="translate(-356.556 -333.734)"/>
                <path id="prefix__패스_304" d="M320.624 337.135a.894.894 0 0 0-1.128.571l-1.265 3.861-1.291-3.852a.894.894 0 0 0-.85-.61.894.894 0 0 0-.846.615l-1.268 3.862-1.288-3.831a.894.894 0 1 0-1.695.57l2.148 6.388v.007l.013.035a.892.892 0 0 0 .233.332.9.9 0 0 0 .424.209h.006a.91.91 0 0 0 .166.015.9.9 0 0 0 .545-.187h.047a.887.887 0 0 0 .112-.12h.041a.9.9 0 0 0 .1-.21l1.049-3.19a.927.927 0 0 0 .028-.108l.186-.568 1.293 3.857a.894.894 0 0 0 1.7-.006l2.1-6.425a.894.894 0 0 0-.56-1.215z" data-name="패스 304" transform="translate(-279.927 -333.938)"/>
                <path id="prefix__패스_305" d="M160.371 338.624a.894.894 0 0 0-.891.9l.022 6.42a.894.894 0 0 0 1.788-.006l-.022-6.42a.894.894 0 0 0-.897-.894z" data-name="패스 305" transform="translate(-159.47 -335.158)"/>
                <path id="prefix__패스_306" d="M165.574 330.1a3.489 3.489 0 0 0-1.8-6.487l-3.459.012a.894.894 0 1 0 .006 1.788l3.459-.012a1.7 1.7 0 0 1 .365 3.365.894.894 0 0 0-.609 1.28l2.126 4.177a.894.894 0 0 0 1.593-.811z" data-name="패스 306" transform="translate(-159.429 -323.219)"/>
                <path id="prefix__패스_307" d="M367.761 339.288a3.869 3.869 0 1 0 3.882 3.855 3.873 3.873 0 0 0-3.882-3.855zm.02 5.949a2.081 2.081 0 1 1 2.074-2.088 2.083 2.083 0 0 1-2.073 2.088z" data-name="패스 307" transform="translate(-322.045 -335.686)"/>
                <path id="prefix__패스_308" d="M460.759 321.695a.894.894 0 0 0-.891.9l.011 3.361a3.869 3.869 0 1 0 .036 6.273.894.894 0 0 0 1.773-.163l-.033-9.477a.894.894 0 0 0-.896-.894zm-3.116 9.488a2.081 2.081 0 1 1 2.073-2.088 2.083 2.083 0 0 1-2.072 2.088z" data-name="패스 308" transform="translate(-393.51 -321.695)"/>
            </g>
            <g id="prefix__그룹_471" data-name="그룹 471" transform="translate(178.459 208.486)">
                <path id="prefix__패스_309" fill="#7ec2ff" d="M256.866 250.979a4.5 4.5 0 1 0 4.512 4.481 4.5 4.5 0 0 0-4.512-4.481z" data-name="패스 309" transform="translate(-252.385 -242.28)"/>
                <path id="prefix__패스_310" fill="#c869ff" d="M291.12 236.534a1.706 1.706 0 0 1-1.617-2.261l1.44-4.177-4.013 1.445a1.7 1.7 0 0 1-2.185-2.17l1.407-3.993-3.983 1.435a1.7 1.7 0 0 1-2.186-2.168l2.584-7.363a1.7 1.7 0 1 1 3.217 1.129l-1.4 3.98 3.989-1.437a1.7 1.7 0 0 1 2.185 2.17l-1.407 3.993 3.983-1.434a1.7 1.7 0 0 1 2.189 2.159l-2.6 7.543a1.7 1.7 0 0 1-1.603 1.149z" data-name="패스 310" transform="translate(-274.256 -214.573)"/>
                <path id="prefix__패스_311" fill="#ffd814" d="M324.354 217.249a2.006 2.006 0 0 1-1.263-.441l-5.925-4.734a2.015 2.015 0 1 1 2.515-3.148l5.925 4.733a2.015 2.015 0 0 1-1.252 3.589z" data-name="패스 311" transform="translate(-303.302 -208.486)"/>
            </g>
        </g>
    </g>
</svg>
