<svg xmlns="http://www.w3.org/2000/svg" width="345.281" height="345.281" viewBox="0 0 345.281 345.281">
    <defs>
        <style>
            .prefix__cls-2{fill:#413847}.prefix__cls-3{fill:#fff}.prefix__cls-8{fill:#57b894}.prefix__cls-9{fill:#3f3d56}.prefix__cls-10{fill:#ffc1c7}.prefix__cls-11{fill:#2f2e41}.prefix__cls-12{fill:#6377ac}
        </style>
    </defs>
    <g id="prefix__howto-3" transform="translate(-.001)">
        <circle id="prefix__타원_67" cx="172.64" cy="172.64" r="172.64" fill="#f8f8f8" data-name="타원 67" transform="translate(.001)"/>
        <g id="prefix__그룹_519" data-name="그룹 519" transform="translate(901.041 -1116.984)">
            <path id="prefix__패스_366" d="M-656.838 1402.087l-104.6-.293a8.584 8.584 0 0 1-8.57-8.653l.619-221.514a8.584 8.584 0 0 1 8.653-8.571l104.6.293a8.586 8.586 0 0 1 8.571 8.653l-.619 221.514a8.651 8.651 0 0 1-8.654 8.571z" class="prefix__cls-2" data-name="패스 366"/>
            <path id="prefix__패스_367" d="M-661.455 1396.617l-95.987-.252a7.577 7.577 0 0 1-7.515-7.617l.625-213.4a7.568 7.568 0 0 1 7.567-7.593l95.986.252a7.577 7.577 0 0 1 7.515 7.617l-.625 213.4a7.633 7.633 0 0 1-7.566 7.593z" class="prefix__cls-3" data-name="패스 367"/>
            <path id="prefix__사각형_1135" d="M0 0h58.489v8.418a6.19 6.19 0 0 1-6.19 6.19H6.19A6.19 6.19 0 0 1 0 8.418V0z" class="prefix__cls-2" data-name="사각형 1135" transform="translate(-736.261 1164.091)"/>
            <rect id="prefix__사각형_1136" width="18.062" height="1.743" fill="#fff" data-name="사각형 1136" opacity="0.39" rx=".872" transform="rotate(.063 -1064918.05 -650635.763)"/>
            <circle id="prefix__타원_90" cx="1.646" cy="1.646" r="1.646" class="prefix__cls-3" data-name="타원 90" transform="translate(-690.135 1169.801)"/>
            <path id="prefix__패스_368" d="M-739.941 1167.8l2.08.006a1.6 1.6 0 0 1 1.594 1.6v2.224l2.65-2.028-.531-3.723-4.628-1z" class="prefix__cls-2" data-name="패스 368"/>
            <path id="prefix__패스_369" d="M-674.132 1167.971l-2.08.008a1.6 1.6 0 0 0-1.591 1.6l.006 2.223-2.653-2.023.524-3.724 4.627-1.007z" class="prefix__cls-2" data-name="패스 369"/>
        </g>
        <g id="prefix__그룹_446" data-name="그룹 446" transform="translate(168.111 119.86)">
            <ellipse id="prefix__타원_71" cx="23.443" cy="7.698" fill="#ccc" data-name="타원 71" rx="23.443" ry="7.698" transform="translate(0 60.247)"/>
            <path id="prefix__패스_274" fill="#c869ff" d="M461.545 211.523a23.446 23.446 0 0 0-23.021 23.443c0 19.736 17.571 35.509 22.99 39.9a2.379 2.379 0 0 0 3.088-.077c4.88-4.371 19.92-19.316 20.776-38.154.622-13.65-10.168-25.355-23.833-25.112zm.425 34.491a11.217 11.217 0 1 1 11.217-11.214 11.217 11.217 0 0 1-11.217 11.217z" data-name="패스 274" transform="translate(-438.521 -211.519)"/>
        </g>
        <path id="prefix__패스_275" fill="none" stroke="#3f3d56" stroke-miterlimit="10" stroke-width="0.63px" d="M346.754 178.167a8.041 8.041 0 0 0-6.931 4.846c-1.733 4.189.5 9.111 3.849 12.166s7.653 4.8 11.563 7.1c5.252 3.083 9.971 7.362 12.6 12.856s2.907 12.3-.182 17.547c-2.867 4.871-8.08 7.787-13.052 10.476" data-name="패스 275" transform="translate(-226.251 -78.075)"/>
        <ellipse id="prefix__타원_72" cx="6.123" cy="2.974" class="prefix__cls-8" data-name="타원 72" rx="6.123" ry="2.974" transform="translate(118.796 97.482)"/>
        <ellipse id="prefix__타원_73" cx="6.123" cy="2.974" class="prefix__cls-8" data-name="타원 73" rx="6.123" ry="2.974" transform="translate(123.694 117.076)"/>
        <ellipse id="prefix__타원_74" cx="6.123" cy="2.974" class="prefix__cls-8" data-name="타원 74" rx="6.123" ry="2.974" transform="translate(112.498 120.225)"/>
        <ellipse id="prefix__타원_75" cx="6.123" cy="2.974" class="prefix__cls-8" data-name="타원 75" rx="6.123" ry="2.974" transform="translate(129.992 136.671)"/>
        <ellipse id="prefix__타원_76" cx="6.123" cy="2.974" class="prefix__cls-8" data-name="타원 76" rx="6.123" ry="2.974" transform="translate(142.239 136.671)"/>
        <path id="prefix__패스_276" d="M206.915 347.26l2.215-4.651.392 5.629z" class="prefix__cls-9" data-name="패스 276" transform="translate(-139.988 -184.861)"/>
        <g id="prefix__그룹_447" data-name="그룹 447" transform="translate(40.699 139.639)">
            <circle id="prefix__타원_77" cx="12.707" cy="12.707" r="12.707" class="prefix__cls-10" data-name="타원 77" transform="translate(22.717 2.869)"/>
            <path id="prefix__패스_277" d="M205.332 330.961s1.955 13.685-2.606 15.639 23.133 1.3 23.133 1.3-3.909-12.381-2.932-15.639-17.595-1.3-17.595-1.3z" class="prefix__cls-10" data-name="패스 277" transform="translate(-179.846 -310.335)"/>
            <path id="prefix__패스_278" d="M189.7 469.8s-.977 24.762-1.955 27.369-1.955 20.2-1.955 20.2l-8.474 40.731 7.819 2.607s15.555-34.47 16.858-36.75 6.926-32 6.926-32-.977 22.481-.977 29.975S209.9 565.6 209.9 565.6l6.191-.652 8.145-43.338s11.73-46.592 3.91-51.806-38.446-.004-38.446-.004z" class="prefix__cls-11" data-name="패스 278" transform="translate(-168.772 -371.303)"/>
            <path id="prefix__패스_279" d="M332.848 331.225s18.162-14.578 18.256-8.556-10.482 15.418-10.482 15.418z" class="prefix__cls-10" data-name="패스 279" transform="translate(-237.935 -306.258)"/>
            <path id="prefix__패스_280" d="M183.615 472.7s.326 18.9-3.584 15.965 0-17.595 0-17.595z" class="prefix__cls-10" data-name="패스 280" transform="translate(-169.207 -372.897)"/>
            <path id="prefix__패스_281" d="M229.427 369.557s-6.517-7.494-12.055-6.516-35.84.651-35.84.651-10.1 12.707-7.494 15.313 11.078 48.873 11.078 48.873 22.481-2.932 30.3-2.932 11.078-1.3 11.078-1.3-.354-16.034-1.379-26.622c-.977-10.1 7.9-23.228 7.9-23.228z" class="prefix__cls-12" data-name="패스 281" transform="translate(-167.123 -324.82)"/>
            <path id="prefix__패스_282" d="M246.286 364.783l-.051-5.874s9.609-6.951 18.185-10.062 12.753-4.972 15.372-7.309S295.362 330 299.2 331.031a21.724 21.724 0 0 1 6.15 2.622s1.943 4.315 1.943 7.267-8.577 9.228-15.432 12.876-30.385 16.145-32.474 17.455c-6.436 4.036-13.101-6.468-13.101-6.468z" class="prefix__cls-12" data-name="패스 282" transform="translate(-199.419 -310.589)"/>
            <path id="prefix__패스_283" d="M201.427 389.686s3.258-14.336-2.933-13.684-14.661.977-16.943.977-15.313-1.629-17.268 6.842-4.561 18.9.977 25.414c0 0 1.955 28.672 9.449 30.627s27.369 4.236 34.537-5.213a24.3 24.3 0 0 0 4.236-19.875h-3.259z" class="prefix__cls-9" data-name="패스 283" transform="translate(-161.93 -330.613)"/>
            <path id="prefix__패스_284" d="M252.417 432.924l2.606-17.594-1.3 18.246z" class="prefix__cls-9" data-name="패스 284" transform="translate(-202.168 -348.111)"/>
            <path id="prefix__패스_285" d="M173.795 439.972s5.539 2.607 16.943.977v4.887l-16.943-1.3z" data-name="패스 285" transform="translate(-167.206 -359.069)" style="isolation:isolate" opacity="0.1"/>
            <path id="prefix__패스_286" d="M227.481 372.073l8.471-4.562-7.168 6.191z" class="prefix__cls-9" data-name="패스 286" transform="translate(-191.08 -326.847)"/>
            <path id="prefix__패스_287" fill="#6c63ff" d="M225.913 358.443s6.517 2.281 6.517 0-5.865-4.236-9.449-5.539-20.527-3.258-23.133-4.235-14.987-2.607-15.965 1.3-1.3 12.055 3.584 13.033 17.595-1.629 24.111-.977 14.335-3.582 14.335-3.582z" data-name="패스 287" transform="translate(-171.429 -317.942)"/>
            <path id="prefix__패스_288" fill="#4961a0" d="M225.913 358.443s6.517 2.281 6.517 0-5.865-4.236-9.449-5.539-20.527-3.258-23.133-4.235-14.987-2.607-15.965 1.3-1.3 12.055 3.584 13.033 17.595-1.629 24.111-.977 14.335-3.582 14.335-3.582z" data-name="패스 288" transform="translate(-171.429 -317.942)" style="isolation:isolate"/>
            <ellipse id="prefix__타원_78" cx="11.896" cy="13.821" class="prefix__cls-11" data-name="타원 78" rx="11.896" ry="13.821" transform="translate(21.325 1.05)"/>
            <ellipse id="prefix__타원_79" cx="11.896" cy="7.523" class="prefix__cls-11" data-name="타원 79" rx="11.896" ry="7.523" transform="translate(23.425)"/>
            <ellipse id="prefix__타원_80" cx="1.225" cy="2.099" class="prefix__cls-10" data-name="타원 80" rx="1.225" ry="2.099" transform="translate(43.369 16.795)"/>
            <path id="prefix__패스_289" d="M239.157 301.482a7.751 7.751 0 0 0 3.121-3.615 3.826 3.826 0 0 1 .063 1.145 4.346 4.346 0 0 0 1.49-.449l-.112 1.219a12.585 12.585 0 0 0 2.459-1.969 9.678 9.678 0 0 1-.861 5.2 10.391 10.391 0 0 1-2.4 2.937" class="prefix__cls-11" data-name="패스 289" transform="translate(-196.272 -295.853)"/>
            <path id="prefix__패스_290" d="M176.325 626.761a23.433 23.433 0 0 0 5.539 1.955c2.281.326 3.563-1.981 3.085-2.783s1.477-.15 2.78 2.783c0 0 5.539 6.516 8.8 6.842s3.284 4.737 1.629 4.887c-1.792.163-4.887 1.3-8.8 0s-7.493-4.887-9.123-4.887-7.168-2.607-5.539-3.91 1.629-4.887 1.629-4.887z" class="prefix__cls-9" data-name="패스 290" transform="translate(-167.475 -441.623)"/>
            <path id="prefix__패스_291" d="M235.125 637.424a18.093 18.093 0 0 0 4.971-.305c2.239-.544 2.574-3.162 1.832-3.729s1.316-.687 3.614 1.552c0 0 7.562 3.995 10.708 3.088s4.807 3.18 3.327 3.933a18.88 18.88 0 0 1-8.161 2.3c-4.114.241-8.78-.794-10.292-.189s-7.623.24-6.594-1.574.595-5.076.595-5.076z" class="prefix__cls-9" data-name="패스 291" transform="translate(-194.162 -444.923)"/>
        </g>
    </g>
</svg>
