<svg xmlns="http://www.w3.org/2000/svg" width="345.28" height="345.28" viewBox="0 0 345.28 345.28">
    <defs>
        <clipPath id="prefix__clip-path">
            <circle id="prefix__타원_93" cx="172.64" cy="172.64" r="172.64" fill="none" data-name="타원 93" transform="translate(-1511.835 795.762)"/>
        </clipPath>
        <style>
            .prefix__cls-4{fill:#d3875e}.prefix__cls-5{fill:#413847}.prefix__cls-6{fill:#fff}.prefix__cls-7{fill:#ffc48e}.prefix__cls-8{fill:#fff7e7;isolation:isolate;opacity:.47}.prefix__cls-11{fill:#b7d0e8}
        </style>
    </defs>
    <g id="prefix__howto-1" transform="translate(1511.835 -795.762)">
        <g id="prefix__그룹_518" data-name="그룹 518">
            <g id="prefix__그룹_517" data-name="그룹 517">
                <g id="prefix__그룹_516" clip-path="url(#prefix__clip-path)" data-name="그룹 516">
                    <g id="prefix__그룹_515" data-name="그룹 515">
                        <circle id="prefix__타원_91" cx="172.64" cy="172.64" r="172.64" fill="#f8f8f8" data-name="타원 91" transform="translate(-1511.835 795.762)"/>
                        <g id="prefix__그룹_511" data-name="그룹 511">
                            <g id="prefix__그룹_510" data-name="그룹 510">
                                <path id="prefix__패스_370" d="M-1409.995 923.757c-3.5-2.11-17.325-13.827-15.1-22.49 2.221-8.607 5.5-7.774 5.5-7.774l5.386 3.665z" class="prefix__cls-4" data-name="패스 370"/>
                                <path id="prefix__패스_371" d="M-1290.441 1030.206l-86.292 18.38a7.241 7.241 0 0 1-8.607-5.608l-38.926-182.747a7.242 7.242 0 0 1 5.608-8.607l86.293-18.38a7.242 7.242 0 0 1 8.607 5.609l38.926 182.746a7.3 7.3 0 0 1-5.609 8.607z" class="prefix__cls-5" data-name="패스 371"/>
                                <path id="prefix__패스_372" d="M-1295.221 1026.518l-79.185 16.88a6.39 6.39 0 0 1-7.552-4.942l-37.477-176.056a6.384 6.384 0 0 1 4.887-7.608l79.184-16.88a6.391 6.391 0 0 1 7.552 4.942l37.477 176.059a6.439 6.439 0 0 1-4.886 7.605z" class="prefix__cls-6" data-name="패스 372"/>
                                <path id="prefix__패스_373" d="M-1352.356 1043.311s20.324 27.986 25.766 31.429c5.5 3.5 12.272 7.774 12.272 7.774l22.711 31.93 73.076-35.428-22.489-25.543s-1.943-49.755-17.991-84.016-27.765-56.917-38.649-68.967-14.992-17.1-21.6-15.493-6.553 8.774-5.331 13.216c.666 2.388 17.658 38.315 17.658 38.315l9.718 30.153s-10.051 31.318-5.775 66.19l-23.212 4.221z" class="prefix__cls-7" data-name="패스 373"/>
                                <g id="prefix__그룹_509" data-name="그룹 509">
                                    <path id="prefix__패스_374" d="M-1241.575 1052.806c-2.388 5.831-11.995 17.825-30.208 23.156 0 0 15.77 2.832 23.156-1.666 7.441-4.553 7.052-21.49 7.052-21.49z" class="prefix__cls-4" data-name="패스 374"/>
                                </g>
                                <path id="prefix__패스_375" d="M-1299.159 1053.917s-2-9.773-3.776-21.046l-23.211 4.221a99 99 0 0 0 15.27 10.772c2.333 1.388 11.717 6.053 11.717 6.053z" class="prefix__cls-4" data-name="패스 375"/>
                                <path id="prefix__패스_376" d="M-1411.217 950.966c-2.054 1.943-5.108 8.385-2.054 16.1s8.274 8.94 11.661 7.774 5.553-6.108 5.275-9.106 1.611-7.83-1.888-13.05c-3.554-5.161-6.719-7.66-12.994-1.718z" class="prefix__cls-7" data-name="패스 376"/>
                                <path id="prefix__패스_377" d="M-1413.216 964.682c.611 2.387 2.166 6.052 4.332 7.663a13.149 13.149 0 0 0 3.887-2.333s-1.5-8.884-1.111-11.716 0-6.664-1.388-7.164c-1.444-.5-3.721 1.222-4.442 1.833-.722.666-2.61 6.164-1.278 11.717z" class="prefix__cls-8" data-name="패스 377"/>
                                <path id="prefix__패스_378" d="M-1399.444 986.282c-3.665-.166-10.495 5.775-9.551 13.827s5.5 15.215 15.1 11.883c4.72-1.666 6.386-3.887 4.831-13.493-.666-4.054-1.5-6.775-2.554-8.552-1.829-3.276-4.382-3.554-7.826-3.665z" class="prefix__cls-7" data-name="패스 378"/>
                                <path id="prefix__패스_379" d="M-1394.5 1036.37c-.222-3.721 3.554-5.5 7-6.83s11.995-5 16.381 3.054 1.278 10.661-4.5 14.271-9.718 6.552-13.605 1.888a21.987 21.987 0 0 1-5.276-12.383z" class="prefix__cls-7" data-name="패스 379"/>
                                <path id="prefix__패스_380" d="M-1379.343 1046.587c-2.5-1.222-7.607-10.662-7.33-13.438 0 0 9.829-4.553 10.995-3.832s6.275 9.718 4.609 11.884c-2.443 3.22-8.274 5.386-8.274 5.386z" class="prefix__cls-8" data-name="패스 380"/>
                                <path id="prefix__사각형_1137" d="M0 0h49.335v7.1a5.221 5.221 0 0 1-5.221 5.221H5.221A5.221 5.221 0 0 1 0 7.1V0z" class="prefix__cls-5" data-name="사각형 1137" transform="rotate(-12.122 3294.612 7008.563)"/>
                                <rect id="prefix__사각형_1138" width="15.235" height="1.471" fill="#fff" data-name="사각형 1138" opacity="0.39" rx=".735" transform="rotate(-12.122 3311.636 6925.558)"/>
                                <circle id="prefix__타원_92" cx="1.388" cy="1.388" r="1.388" class="prefix__cls-6" data-name="타원 92" transform="translate(-1358.986 844.292)"/>
                                <path id="prefix__패스_381" d="M-1404.942 1007.939a20.419 20.419 0 0 1-2.61-9c-.055-4.72 1.611-7.163 3.5-8.052 1.443-.666 4.553-.944 5.553 0 2.554 2.388 2.665 9.884 2.943 14.049 0 0 1.61 4.831-3.165 5.386-.002.004-4.388.06-6.221-2.383z" class="prefix__cls-8" data-name="패스 381"/>
                                <path id="prefix__패스_382" fill="#fff7e7" d="M-1313.485 885.83s-5.664 3.776-6.109 4.887c-.444 1.055 10.329 14.493 14.049 13.6s4.942-5.83 4.942-5.83-6.997-8.936-12.882-12.657z" data-name="패스 382" style="isolation:isolate" opacity="0.5"/>
                                <path id="prefix__패스_383" d="M-1316.484 1044.144l-35.872-.833 26.154-6.219z" class="prefix__cls-4" data-name="패스 383"/>
                                <path id="prefix__패스_384" d="M-1400.669 851.831l1.716-.366a1.348 1.348 0 0 1 1.6 1.035l.394 1.834 1.823-2.144-1.1-2.975h-3.994z" class="prefix__cls-5" data-name="패스 384"/>
                                <path id="prefix__패스_385" d="M-1346.379 840.258l-1.714.378a1.347 1.347 0 0 0-1.026 1.6l.4 1.832-2.548-1.2-.23-3.164 3.635-1.654z" class="prefix__cls-5" data-name="패스 385"/>
                            </g>
                            <path id="prefix__패스_386" d="M-1299.381 1103.338l-4.553 7.385 26.1 33.6 77.907-58.361-15.77-23.378-10.662 5.331z" class="prefix__cls-11" data-name="패스 386"/>
                            <path id="prefix__패스_387" fill="#ff7d51" d="M-1277.836 1144.318l77.908-58.361 3.609-3.276a5.89 5.89 0 0 1 9.218 1.777l14.993 30.93-98.009 47.477c-.056 0-8.107-19.324-7.719-18.547z" data-name="패스 387"/>
                            <path id="prefix__패스_388" d="M-1199.928 1085.957l-77.907 58.361-8.274-10.662 61.249-33.373z" class="prefix__cls-11" data-name="패스 388"/>
                        </g>
                        <g id="prefix__그룹_514" data-name="그룹 514">
                            <g id="prefix__그룹_512" data-name="그룹 512">
                                <path id="prefix__패스_389" d="M-1372.735 937.472a3.36 3.36 0 0 0-2.665 3.943 3.486 3.486 0 0 0 4 2.887 3.551 3.551 0 0 0 2.276-1.5.791.791 0 0 0-.222-1.055.791.791 0 0 0-1.055.222 1.879 1.879 0 0 1-1.277.833 1.986 1.986 0 0 1-2-.944l4.165-.722a.769.769 0 0 0 .61-.888 3.356 3.356 0 0 0-3.832-2.776zm-1.166 2.888a1.775 1.775 0 0 1 1.444-1.388 1.847 1.847 0 0 1 1.832.833z" data-name="패스 389"/>
                                <path id="prefix__패스_390" d="M-1362.74 935.7a.772.772 0 0 0-.611.889v.111a3.462 3.462 0 0 0-2-.278 3.321 3.321 0 0 0-2.665 3.832 3.32 3.32 0 0 0 3.832 2.665 2.935 2.935 0 0 0 1.776-.944.788.788 0 0 0 .833.5.77.77 0 0 0 .611-.889l-.944-5.219a.693.693 0 0 0-.832-.667zm-1.721 5.72a1.806 1.806 0 0 1-2.055-1.444 1.8 1.8 0 0 1 1.444-2.054 1.8 1.8 0 0 1 2.055 1.443 1.806 1.806 0 0 1-1.444 2.05z" data-name="패스 390"/>
                                <path id="prefix__패스_391" d="M-1357.131 940.249a1.01 1.01 0 0 1-1-.833l-1.11-6.442a.749.749 0 0 0-.944-.61.8.8 0 0 0-.556.888l1.166 6.664a2.226 2.226 0 0 0 2.5 1.777.784.784 0 0 0 .667-.944.914.914 0 0 0-.723-.5z" data-name="패스 391"/>
                                <path id="prefix__패스_392" d="M-1332.7 935.973a1.01 1.01 0 0 1-1-.833l-1.111-6.441a.748.748 0 0 0-.944-.611.8.8 0 0 0-.555.888l1.166 6.664a2.226 2.226 0 0 0 2.5 1.777.784.784 0 0 0 .666-.944.734.734 0 0 0-.722-.5z" data-name="패스 392"/>
                                <path id="prefix__패스_393" d="M-1337.7 931.142a3.414 3.414 0 0 0-2.721 3.887l.5 2.776a.808.808 0 0 0 .888.667.769.769 0 0 0 .667-.889l-.5-2.832a1.912 1.912 0 0 1 1.5-2.165.75.75 0 0 0 .611-.944.8.8 0 0 0-.945-.5z" data-name="패스 393"/>
                                <path id="prefix__패스_394" d="M-1349.413 933.252a.831.831 0 0 0-.888.666l-.5 3.443-1.666-3.054a.79.79 0 0 0-.777-.389.769.769 0 0 0-.611.667l-.5 3.443-1.666-3.054a.813.813 0 0 0-1.055-.334.789.789 0 0 0-.388.778c0 .055.055.166.055.222l2.721 5.053c.056.111.167.167.222.222a.8.8 0 0 0 .389.111h.166a1.111 1.111 0 0 0 .445-.222c.055-.055.055-.055.055-.111s.056-.111.056-.167l.444-2.832v-.111l.055-.5 1.666 3.054a.789.789 0 0 0 .778.388.768.768 0 0 0 .611-.666l.833-5.719a.556.556 0 0 0-.445-.888z" data-name="패스 394"/>
                                <path id="prefix__패스_395" d="M-1382.786 939.249a.771.771 0 0 0-.611.889l.944 5.386a.771.771 0 0 0 .889.611.771.771 0 0 0 .611-.889l-.944-5.386a.721.721 0 0 0-.889-.611z" data-name="패스 395"/>
                                <path id="prefix__패스_396" d="M-1377.9 941.359a3.035 3.035 0 0 0 1-2.776 2.925 2.925 0 0 0-3.442-2.388l-2.888.5a.769.769 0 0 0-.611.888.77.77 0 0 0 .889.611l2.887-.5a1.41 1.41 0 0 1 1.666 1.167 1.53 1.53 0 0 1-.888 1.61.791.791 0 0 0-.445.5.911.911 0 0 0 .111.666l2.388 3.221a.722.722 0 0 0 .722.277.479.479 0 0 0 .333-.166.787.787 0 0 0 .167-1.055z" data-name="패스 396"/>
                                <path id="prefix__패스_397" d="M-1345.137 932.863a3.32 3.32 0 0 0-2.665 3.832 3.319 3.319 0 0 0 3.831 2.665 3.319 3.319 0 0 0 2.666-3.831 3.279 3.279 0 0 0-3.832-2.666zm.888 4.942a1.8 1.8 0 0 1-2.054-1.443 1.805 1.805 0 0 1 1.444-2.055 1.8 1.8 0 0 1 2.054 1.444 1.8 1.8 0 0 1-1.444 2.049z" data-name="패스 397"/>
                                <path id="prefix__패스_398" d="M-1327.59 926.7a.77.77 0 0 0-.611.888l.5 2.832a3.463 3.463 0 0 0-2-.278 3.32 3.32 0 0 0-2.665 3.832 3.318 3.318 0 0 0 3.831 2.665 2.935 2.935 0 0 0 1.777-.944.785.785 0 0 0 .833.5.77.77 0 0 0 .611-.888l-1.388-7.941a.7.7 0 0 0-.888-.666zm-1.221 8.385a1.806 1.806 0 0 1-2.055-1.444 1.805 1.805 0 0 1 1.444-2.055 1.8 1.8 0 0 1 2.054 1.444 1.775 1.775 0 0 1-1.443 2.055z" data-name="패스 398"/>
                            </g>
                            <g id="prefix__그룹_513" data-name="그룹 513">
                                <path id="prefix__패스_399" fill="#7ec2ff" d="M-1366.405 920.869a3.839 3.839 0 0 0-3.109 4.442 3.839 3.839 0 0 0 4.442 3.11 3.84 3.84 0 0 0 3.11-4.442 3.883 3.883 0 0 0-4.443-3.11z" data-name="패스 399"/>
                                <path id="prefix__패스_400" fill="#c869ff" d="M-1354.077 930.2a1.5 1.5 0 0 1-.5 0 1.489 1.489 0 0 1-1.222-1.666l.611-3.72-3.165 1.777a1.554 1.554 0 0 1-1.555-.056 1.6 1.6 0 0 1-.611-1.444l.611-3.554-3.109 1.777a1.554 1.554 0 0 1-1.555-.055 1.6 1.6 0 0 1-.611-1.444l1.111-6.552a1.408 1.408 0 0 1 1.665-1.166 1.409 1.409 0 0 1 1.167 1.665l-.611 3.554 3.165-1.777a1.554 1.554 0 0 1 1.555.056 1.6 1.6 0 0 1 .611 1.444l-.611 3.553 3.109-1.776a1.551 1.551 0 0 1 1.555.055 1.483 1.483 0 0 1 .611 1.444l-1.111 6.719a1.3 1.3 0 0 1-1.11 1.166z" data-name="패스 400"/>
                                <path id="prefix__패스_401" fill="#ffd814" d="M-1352.467 918.537a1.886 1.886 0 0 1-1.11-.167l-5.664-3.109a1.721 1.721 0 0 1-.667-2.333 1.72 1.72 0 0 1 2.333-.666l5.663 3.11a1.719 1.719 0 0 1 .667 2.332 1.9 1.9 0 0 1-1.222.833z" data-name="패스 401"/>
                            </g>
                        </g>
                    </g>
                </g>
            </g>
        </g>
        <path id="prefix__패스_402" d="M-1352.086 1040.929l-1.777 2.785 50.928-10.843-15.334.77z" class="prefix__cls-5" data-name="패스 402"/>
    </g>
</svg>
