<svg xmlns="http://www.w3.org/2000/svg" width="799.177" height="806.838" viewBox="0 0 799.177 806.838">
    <g id="prefix__background-graphic" opacity="0.15" transform="rotate(171 387.89 395.453)">
        <g id="prefix__그룹_456" data-name="그룹 456" opacity="0.778" transform="translate(302.387 203.014)">
            <path id="prefix__패스_293" fill="#c869ff" d="M9.467 339.351a66.465 66.465 0 0 1 1.625-70.951L169.547 29.713a66.465 66.465 0 0 1 110.748 73.519l-80.55 121.336 143.915-14.873a66.465 66.465 0 0 1 62.831 101.914l-151.522 237a66.464 66.464 0 0 1-112-71.6l77.31-120.922L73.3 371.273a66.461 66.461 0 0 1-63.71-31.721z" data-name="패스 293"/>
        </g>
        <circle id="prefix__타원_83" cx="186.919" cy="186.919" r="186.919" fill="#7ec2ff" data-name="타원 83" transform="translate(0 215.354)"/>
        <g id="prefix__그룹_457" data-name="그룹 457" transform="translate(211.055)">
            <path id="prefix__패스_294" fill="#ffd814" d="M21.018 17.966a66.466 66.466 0 0 1 93.945 3.051l176.871 188.745a66.464 66.464 0 0 1-97 90.894L17.967 111.911a66.464 66.464 0 0 1 3.051-93.945z" data-name="패스 294"/>
        </g>
    </g>
</svg>
