<svg xmlns="http://www.w3.org/2000/svg" id="prefix__youtube--icon" width="33.78" height="33.78" viewBox="0 0 33.78 33.78">
    <g id="prefix__그룹_409" data-name="그룹 409">
        <path id="prefix__패스_209" fill="#d00" d="M558.355 752.694a16.89 16.89 0 1 1-16.89-16.89 16.89 16.89 0 0 1 16.89 16.89zm0 0" data-name="패스 209" transform="translate(-524.575 -735.804)"/>
    </g>
    <g id="prefix__youtube-symbol" transform="translate(6.032 9.221)">
        <path id="prefix__패스_228" fill="#fff" d="M21.609 17.142a2.778 2.778 0 0 0-2.377-2.161 73.883 73.883 0 0 0-8.234-.3 73.9 73.9 0 0 0-8.235.3 2.777 2.777 0 0 0-2.376 2.161A23.549 23.549 0 0 0 0 22.339a23.542 23.542 0 0 0 .383 5.2A2.777 2.777 0 0 0 2.759 29.7a73.831 73.831 0 0 0 8.234.3 73.816 73.816 0 0 0 8.234-.3 2.779 2.779 0 0 0 2.373-2.163 23.53 23.53 0 0 0 .385-5.2 23.545 23.545 0 0 0-.376-5.195zm-13.452 8.61v-7.271l6.99 3.647z" data-name="패스 228" transform="translate(0 -14.676)"/>
    </g>
</svg>
